<?xml version="1.0" standalone="no"?>
<!DOCTYPE svg PUBLIC "-//W3C//DTD SVG 20010904//EN"
 "http://www.w3.org/TR/2001/REC-SVG-20010904/DTD/svg10.dtd">
<svg version="1.0" xmlns="http://www.w3.org/2000/svg"
 width="512.000000pt" height="512.000000pt" viewBox="0 0 512.000000 512.000000"
 preserveAspectRatio="xMidYMid meet">
<metadata>
Created by potrace 1.14, written by Peter Selinger 2001-2017
</metadata>
<g transform="translate(0.000000,512.000000) scale(0.100000,-0.100000)"
fill="#000000" stroke="none">
<path d="M2580 5106 c0 -7 6 -29 14 -47 7 -19 17 -49 21 -68 7 -32 6 -34 -16
-27 -96 30 -134 37 -204 37 -138 0 -302 -57 -417 -144 -31 -24 -90 -50 -179
-80 -74 -25 -155 -54 -182 -66 -26 -11 -49 -20 -52 -20 -3 -1 -58 -28 -123
-61 -319 -166 -589 -392 -833 -696 -50 -64 -176 -265 -227 -364 -81 -159 -124
-270 -192 -495 -12 -40 -46 -211 -55 -275 -27 -191 -27 -556 -1 -696 2 -11 7
-40 10 -66 4 -26 15 -84 26 -130 137 -570 429 -1030 875 -1380 176 -138 201
-154 402 -259 247 -129 488 -205 793 -251 130 -19 520 -16 655 5 147 23 158
25 250 48 375 93 702 262 1010 519 100 84 283 281 372 400 208 280 379 665
437 985 47 255 56 612 22 815 -3 14 -7 43 -10 65 -8 66 -54 254 -83 340 -15
44 -28 82 -28 85 -11 43 -81 201 -133 300 -103 198 -244 395 -399 561 -156
166 -419 365 -633 478 -95 50 -332 151 -354 151 -7 0 -37 29 -67 64 -120 141
-256 189 -401 140 l-48 -16 -57 52 c-53 47 -157 110 -183 110 -5 0 -10 -6 -10
-14z"/>
</g>
</svg>
