<svg xmlns="http://www.w3.org/2000/svg" version="1.1" xmlns:xlink="http://www.w3.org/1999/xlink" width="512" height="512" x="0" y="0" viewBox="0 0 20 20" style="enable-background:new 0 0 512 512" xml:space="preserve" class=""><g><linearGradient id="a" x1="10" x2="10" y1="2" y2="18" gradientUnits="userSpaceOnUse"><stop offset="0" stop-color="#ee9ae5"></stop><stop offset="1" stop-color="#5961f9"></stop></linearGradient><path fill="url(#a)" d="M19 11H1a1 1 0 0 1 0-2h18a1 1 0 1 1 0 2zm0-7H1a1 1 0 0 1 0-2h18a1 1 0 1 1 0 2zm0 14H1a1 1 0 0 1 0-2h18a1 1 0 0 1 0 2z" opacity="1" data-original="url(#a)" class=""></path></g></svg>